<svg xmlns="http://www.w3.org/2000/svg" viewBox="0 0 1200 630">
  <defs>
    <linearGradient id="paper" x1="0%" x2="100%" y1="0%" y2="100%">
      <stop offset="0%" stop-color="#F5FAFF" />
      <stop offset="100%" stop-color="#D7E5F5" />
    </linearGradient>
    <linearGradient id="panel" x1="0%" x2="100%" y1="0%" y2="100%">
      <stop offset="0%" stop-color="#0F3F68" />
      <stop offset="100%" stop-color="#125183" />
    </linearGradient>
  </defs>
  <rect width="1200" height="630" fill="url(#paper)" />
  <circle cx="178" cy="122" r="132" fill="#0D74BB" opacity="0.12" />
  <circle cx="1038" cy="474" r="164" fill="#005B96" opacity="0.12" />
  <rect x="54" y="54" width="1092" height="522" rx="34" fill="#F6FAFF" stroke="#B9D2EA" stroke-width="2" />
  <rect x="92" y="92" width="472" height="446" rx="28" fill="url(#panel)" />
  <rect x="592" y="92" width="516" height="128" rx="24" fill="#E6F1FB" stroke="#B9D2EA" />
  <rect x="592" y="244" width="242" height="132" rx="24" fill="#F8FBFF" stroke="#B9D2EA" />
  <rect x="866" y="244" width="242" height="132" rx="24" fill="#F8FBFF" stroke="#B9D2EA" />
  <rect x="592" y="402" width="516" height="136" rx="24" fill="#173452" />
  <text x="126" y="158" fill="#7FC4F0" font-size="26" font-family="Verdana, sans-serif" letter-spacing="4">gallego.top</text>
  <text x="126" y="248" fill="#F8FBFF" font-size="72" font-family="Georgia, serif">Teaching tools</text>
  <text x="126" y="322" fill="#F8FBFF" font-size="72" font-family="Georgia, serif">with editorial</text>
  <text x="126" y="396" fill="#F8FBFF" font-size="72" font-family="Georgia, serif">clarity</text>
  <text x="126" y="468" fill="#D8E8F6" font-size="29" font-family="Verdana, sans-serif">
    Multilingual catalogue, browser-first privacy and practical classroom workflows.
  </text>
  <text x="624" y="150" fill="#173452" font-size="22" font-family="Verdana, sans-serif" letter-spacing="3">MULTILINGUAL LANDING</text>
  <text x="624" y="188" fill="#173452" font-size="40" font-family="Georgia, serif">Beautiful, useful, fast to scan.</text>
  <text x="626" y="298" fill="#173452" font-size="18" font-family="Verdana, sans-serif">7 languages</text>
  <text x="900" y="298" fill="#173452" font-size="18" font-family="Verdana, sans-serif">Live catalogue</text>
  <text x="624" y="478" fill="#F5FAFF" font-size="24" font-family="Verdana, sans-serif">
    Designed for real teaching work, not for generic demos.
  </text>
</svg>
