<svg xmlns="http://www.w3.org/2000/svg" viewBox="0 0 960 780" fill="none">
  <rect width="960" height="780" rx="44" fill="#F6EEDF"/>
  <rect x="32" y="32" width="896" height="716" rx="34" fill="#FBF6EC" stroke="#D7C09A" stroke-width="2"/>
  <circle cx="164" cy="138" r="98" fill="#2F6A67" opacity=".14"/>
  <circle cx="792" cy="648" r="132" fill="#C26840" opacity=".15"/>
  <rect x="84" y="112" width="472" height="556" rx="28" fill="#11243C"/>
  <rect x="124" y="152" width="138" height="34" rx="17" fill="#78C9C0" opacity=".3"/>
  <rect x="124" y="224" width="326" height="30" rx="15" fill="#F6EEDF"/>
  <rect x="124" y="272" width="274" height="22" rx="11" fill="#D0DBE6" opacity=".72"/>
  <rect x="124" y="320" width="182" height="22" rx="11" fill="#D0DBE6" opacity=".44"/>
  <rect x="124" y="390" width="392" height="188" rx="24" fill="#173452"/>
  <rect x="156" y="424" width="146" height="94" rx="18" fill="#FAF4E8"/>
  <rect x="322" y="424" width="162" height="94" rx="18" fill="#3D7A76"/>
  <rect x="586" y="152" width="274" height="160" rx="26" fill="#F3E6CF" stroke="#D7C09A" stroke-width="2"/>
  <rect x="586" y="344" width="274" height="152" rx="26" fill="#FCF8F1" stroke="#D7C09A" stroke-width="2"/>
  <rect x="586" y="528" width="274" height="140" rx="26" fill="#C26840"/>
  <rect x="622" y="194" width="144" height="18" rx="9" fill="#11243C"/>
  <rect x="622" y="230" width="190" height="12" rx="6" fill="#11243C" opacity=".42"/>
  <rect x="622" y="386" width="118" height="18" rx="9" fill="#11243C"/>
  <rect x="622" y="422" width="170" height="12" rx="6" fill="#11243C" opacity=".42"/>
  <rect x="622" y="570" width="126" height="18" rx="9" fill="#FAF4E8"/>
  <rect x="622" y="606" width="180" height="12" rx="6" fill="#FAF4E8" opacity=".68"/>
  <path d="M168 628C205 558 265 522 348 520C434 518 499 560 544 646" stroke="#78C9C0" stroke-width="8" stroke-linecap="round"/>
  <circle cx="168" cy="628" r="14" fill="#78C9C0"/>
  <circle cx="348" cy="520" r="14" fill="#FAF4E8"/>
  <circle cx="544" cy="646" r="14" fill="#C26840"/>
</svg>
